<svg width="4430" height="2462" viewBox="0 0 4430 2462" fill="none" xmlns="http://www.w3.org/2000/svg">
<path d="M203.976 9.99836C203.976 9.99836 8.96122 741.894 7.49581 1216C6.04324 1685.95 194.976 2421 194.976 2421" stroke="#0066FF" stroke-width="4"/>
<path d="M586.471 25.7166C586.471 25.7166 391.457 757.612 389.991 1231.72C388.539 1701.67 577.471 2436.72 577.471 2436.72" stroke="#0066FF" stroke-width="4"/>
<path d="M978.471 9.71662C978.471 9.71662 783.457 741.612 781.991 1215.72C780.539 1685.67 969.471 2420.72 969.471 2420.72" stroke="#0066FF" stroke-width="4"/>
<path d="M1472.47 1.71662C1472.47 1.71662 1277.46 733.612 1275.99 1207.72C1274.54 1677.67 1463.47 2412.72 1463.47 2412.72" stroke="#0066FF" stroke-width="4"/>
<path d="M1966.47 8.71662C1966.47 8.71662 1771.46 740.612 1769.99 1214.72C1768.54 1684.67 1957.47 2419.72 1957.47 2419.72" stroke="#0066FF" stroke-width="4"/>
<path d="M4226.5 33.9984C4226.5 33.9984 4421.51 765.894 4422.98 1240C4424.43 1709.95 4235.5 2445 4235.5 2445" stroke="#0066FF" stroke-width="4"/>
<path d="M3844 49.7166C3844 49.7166 4039.01 781.612 4040.48 1255.72C4041.93 1725.67 3853 2460.72 3853 2460.72" stroke="#0066FF" stroke-width="4"/>
<path d="M3452 33.7166C3452 33.7166 3647.01 765.612 3648.48 1239.72C3649.93 1709.67 3461 2444.72 3461 2444.72" stroke="#0066FF" stroke-width="4"/>
<path d="M2958 25.7166C2958 25.7166 3153.01 757.612 3154.48 1231.72C3155.93 1701.67 2967 2436.72 2967 2436.72" stroke="#0066FF" stroke-width="4"/>
<path d="M2464 32.7166C2464 32.7166 2659.01 764.612 2660.48 1238.72C2661.93 1708.67 2473 2443.72 2473 2443.72" stroke="#0066FF" stroke-width="4"/>
</svg>
