<svg width="111" height="40" viewBox="0 0 111 40" fill="none" xmlns="http://www.w3.org/2000/svg">
<path d="M11.1064 23.1514H7.13867V32H2.1582V7.82812H11.1396C13.9951 7.82812 16.1976 8.46452 17.7471 9.7373C19.2965 11.0101 20.0713 12.8086 20.0713 15.1328C20.0713 16.7819 19.7116 18.1598 18.9922 19.2666C18.2839 20.3623 17.2048 21.2367 15.7549 21.8896L20.9844 31.7676V32H15.6387L11.1064 23.1514ZM7.13867 19.1172H11.1562C12.4069 19.1172 13.3753 18.8018 14.0615 18.1709C14.7477 17.529 15.0908 16.6491 15.0908 15.5312C15.0908 14.3913 14.7643 13.4948 14.1113 12.8418C13.4694 12.1888 12.4788 11.8623 11.1396 11.8623H7.13867V19.1172ZM38.416 21.5244H28.8535V27.999H40.0762V32H23.873V7.82812H40.043V11.8623H28.8535V17.623H38.416V21.5244ZM42.998 32V7.82812H50.4355C52.5605 7.82812 54.4587 8.30957 56.1299 9.27246C57.8122 10.2243 59.1237 11.5856 60.0645 13.3564C61.0052 15.1162 61.4756 17.1195 61.4756 19.3662V20.4785C61.4756 22.7253 61.0107 24.723 60.0811 26.4717C59.1624 28.2204 57.862 29.5762 56.1797 30.5391C54.4974 31.502 52.5993 31.9889 50.4854 32H42.998ZM47.9785 11.8623V27.999H50.3857C52.3337 27.999 53.8223 27.3626 54.8516 26.0898C55.8809 24.8171 56.4066 22.9964 56.4287 20.6279V19.3496C56.4287 16.8926 55.9196 15.0332 54.9014 13.7715C53.8831 12.4987 52.3945 11.8623 50.4355 11.8623H47.9785Z" fill="#0070DF"/>
<rect x="66" y="3" width="44.625" height="34" rx="3" fill="#0070DF"/>
<path d="M82.043 28.2344C80.2383 28.2344 78.7734 27.668 77.6484 26.5352C76.5312 25.3945 75.9727 23.8789 75.9727 21.9883V21.6367C75.9727 20.3711 76.2148 19.2422 76.6992 18.25C77.1914 17.25 77.8789 16.4727 78.7617 15.918C79.6445 15.3633 80.6289 15.0859 81.7148 15.0859C83.4414 15.0859 84.7734 15.6367 85.7109 16.7383C86.6562 17.8398 87.1289 19.3984 87.1289 21.4141V22.5625H78.8438C78.9297 23.6094 79.2773 24.4375 79.8867 25.0469C80.5039 25.6562 81.2773 25.9609 82.207 25.9609C83.5117 25.9609 84.5742 25.4336 85.3945 24.3789L86.9297 25.8438C86.4219 26.6016 85.7422 27.1914 84.8906 27.6133C84.0469 28.0273 83.0977 28.2344 82.043 28.2344ZM81.7031 17.3711C80.9219 17.3711 80.2891 17.6445 79.8047 18.1914C79.3281 18.7383 79.0234 19.5 78.8906 20.4766H84.3164V20.2656C84.2539 19.3125 84 18.5938 83.5547 18.1094C83.1094 17.6172 82.4922 17.3711 81.7031 17.3711ZM93.9023 19.4922L96.3164 15.3203H99.4805L95.6016 21.5664L99.6094 28H96.4688L93.9375 23.6641L91.418 28H88.2539L92.2617 21.5664L88.3945 15.3203H91.5352L93.9023 19.4922Z" fill="white"/>
</svg>
